<?xml version="1.0" encoding="UTF-8"?>
<svg xmlns="http://www.w3.org/2000/svg" width="88.9011mm" height="27.387mm" viewBox="0 0 252.0031 77.6325">
  <defs>
    <style>
      .cls-1 {
        fill: #5c91a4;
      }

      .cls-2, .cls-3 {
        isolation: isolate;
      }

      .cls-3 {
        fill: #ccc;
        mix-blend-mode: multiply;
      }
    </style>
  </defs>
  <g class="cls-2">
    <g id="Layer_1" data-name="Layer 1">
      <g id="Logo_-_Header" data-name="Logo - Header">
        <path id="Path_40678" data-name="Path 40678" d="M203.332,53.6771l-3.855-8.119,4.465-.2,4.059,5.074,37.55.812,5.482,2.031-22.734.811-8.412,2.632-4.579-.2,5.075-2.639-17.0511-.202Z"/>
        <path id="Union_69" data-name="Union 69" d="M209.896,74.3621c0-2.037,1.258-3.372,2.972-3.372,1.763,0,2.9,1.343,2.9,3.257,0,2.2-1.343,3.383-2.983,3.383-1.707,0-2.889-1.324-2.889-3.268ZM210.774,74.3421c0,1.382.742,2.612,2.057,2.612s2.057-1.211,2.057-2.667c0-1.286-.665-2.621-2.048-2.621s-2.066,1.277-2.066,2.676ZM159.735,74.3621c0-2.037,1.258-3.372,2.972-3.372,1.763,0,2.9,1.343,2.9,3.257,0,2.2-1.342,3.383-2.981,3.383-1.71,0-2.891-1.324-2.891-3.268ZM160.611,74.3421c0,1.382.744,2.612,2.059,2.612s2.057-1.212,2.057-2.664c0-1.286-.667-2.621-2.048-2.621s-2.068,1.274-2.068,2.673h0ZM101.717,74.3531c-.1381-1.7137,1.1392-3.2149,2.8529-3.353.0905-.0073.1813-.0106.2721-.01,1.6565-.0332,3.0263,1.2828,3.0595,2.9393.0021.106-.0014.212-.0105.3177.1835,1.6761-1.0264,3.1836-2.7025,3.3672-.1499.0164-.3008.0217-.4515.0158-1.6568.0181-3.0145-1.3102-3.0327-2.967-.0011-.1035.0031-.207.0126-.31h0ZM103.251,74.3241c0,1.266.59,2.153,1.563,2.153s1.543-.935,1.543-2.182c0-1.161-.544-2.152-1.543-2.152s-1.563.932-1.563,2.181ZM62.5,74.3531c-.1376-1.7143,1.1406-3.2155,2.8549-3.3531.0905-.0073.1813-.0106.2721-.0099,1.6565-.0332,3.0263,1.2828,3.0595,2.9393.0021.106-.0014.212-.0105.3177.1836,1.6761-1.0264,3.1837-2.7025,3.3672-.1502.0165-.3015.0217-.4525.0158-1.6567.0187-3.015-1.3092-3.0336-2.966-.0012-.1038.003-.2076.0126-.311h0ZM64.034,74.3241c0,1.266.591,2.153,1.563,2.153s1.543-.935,1.543-2.182c0-1.161-.544-2.152-1.543-2.152s-1.562.932-1.562,2.181h-.001ZM33.827,74.6901v-3.586h1.449v3.686c0,1.113.428,1.675,1.161,1.675.764,0,1.183-.533,1.183-1.675v-3.686h1.447v3.6c0,1.98-1,2.924-2.676,2.924-1.62.002-2.564-.903-2.564-2.938ZM26.341,74.3571c-.1403-1.7135,1.135-3.2164,2.8485-3.3567.0916-.0075.1835-.0109.2755-.0103,1.6565-.0332,3.0263,1.2828,3.0595,2.9393.0021.106-.0014.212-.0105.3177.1841,1.6755-1.025,3.183-2.7005,3.367-.1499.0165-.3008.0218-.4515.016-1.6568.0181-3.0145-1.3102-3.0327-2.967-.0011-.1035.0031-.207.0127-.31l-.001.004ZM27.873,74.3281c0,1.266.591,2.153,1.563,2.153s1.543-.935,1.543-2.182c0-1.161-.542-2.152-1.543-2.152s-1.562.928-1.562,2.177l-.001.004ZM247.561,77.5071v-6.307c.5659-.0986,1.1395-.1468,1.714-.144.6378-.0569,1.2775.0864,1.83.41.4251.2525.6798.7158.665,1.21-.0187.6432-.4495,1.2012-1.067,1.382v.032c.7539.1519,1.2971.8129,1.3,1.582.0056.5133-.2181,1.0024-.61,1.334-.7044.4681-1.5498.6763-2.391.589-.4817.0005-.9629-.0289-1.441-.088ZM248.724,76.6781c.2052.0262.4122.0356.619.028.753,0,1.429-.276,1.429-1.066,0-.753-.658-1.058-1.466-1.058h-.579l-.003,2.096ZM248.724,71.9711v1.762h.6c.819,0,1.267-.382,1.267-.924,0-.61-.457-.887-1.2-.887-.2224-.0068-.445.0096-.664.049h-.003ZM94.827,77.4961v-6.296c.6476-.0987,1.3019-.1469,1.957-.144.933-.0741,1.8638.1675,2.643.686.7393.5775,1.1457,1.4828,1.086,2.419.055.9815-.3333,1.9358-1.058,2.6-.867.6074-1.9158.8996-2.972.828-.5535.0059-1.1067-.0252-1.656-.093ZM96.276,72.2271v4.2c.1654.0251.3328.0348.5.029,1.0981.1191,2.0849-.6745,2.204-1.7727.0171-.1574.0154-.3163-.005-.4733.1072-1.0194-.6323-1.9327-1.6517-2.0399-.1287-.0135-.2585-.0136-.3873,0-.2204-.0039-.4407.0155-.657.058l-.003-.001ZM20.14,77.4961v-6.306c.6215-.0907,1.2489-.1354,1.877-.134.6577-.0566,1.3183.0682,1.91.361.4745.2428.7699.734.762,1.267-.017.638-.4475,1.1905-1.062,1.363v.02c.7453.1536,1.2794.811,1.277,1.572.0039.5361-.2428,1.0432-.667,1.371-.7554.4639-1.6419.6676-2.524.58-.5259.0057-1.0515-.0257-1.573-.094ZM21.578,76.4961c.1868.0171.3745.0231.562.018.657,0,1.238-.257,1.238-.933,0-.639-.582-.9-1.3-.9h-.5v1.815ZM21.578,72.1511v1.5h.476c.772,0,1.172-.314,1.172-.79s-.371-.744-1.029-.744c-.2069-.0053-.4139.006-.619.034ZM242.121,77.5241v-6.42h1.172v5.44h2.639v.981l-3.811-.001ZM239.045,77.5241l-.118-2.618c-.039-.829-.086-1.831-.077-2.7h-.029c-.211.782-.476,1.649-.762,2.459l-.944,2.782h-.9l-.856-2.742c-.248-.82-.476-1.7-.649-2.5h-.018c-.029.839-.068,1.859-.114,2.735l-.143,2.582h-1.1l.428-6.42h1.543l.839,2.581c.228.752.428,1.514.59,2.23h.029c.171-.7.391-1.486.639-2.239l.885-2.572h1.525l.371,6.42-1.139.002ZM224.757,77.5241v-5.716h-1.953v-.7h4.754v.7h-1.962v5.716h-.839ZM220.909,77.5241c-.1904-.4961-.3308-1.01-.419-1.534-.191-.886-.544-1.221-1.3-1.249h-.781v2.783h-.83v-6.334c.5257-.0889,1.0579-.1337,1.591-.134.6628-.0647,1.3257.1224,1.857.524.3324.3213.5139.7679.5,1.23.0067.7492-.4824,1.4127-1.2,1.628v.03c.5203.2366.8762.7314.935,1.3.1118.6009.2771,1.1906.494,1.762l-.847-.006ZM218.409,71.7711v2.342h.847c.887,0,1.449-.485,1.449-1.219,0-.829-.6-1.191-1.477-1.191-.2734-.008-.5468.0148-.815.068h-.004ZM204.468,77.5241v-6.343c.5258-.0865,1.0581-.1283,1.591-.125.645-.0485,1.2854.1411,1.8.533.3723.346.5772.8359.562,1.344.0242.5056-.156.9997-.5,1.371-.5316.491-1.2395.7454-1.962.705-.2238.0074-.4477-.0117-.667-.057v2.572h-.824ZM205.295,71.7801v2.5c.2254.0505.4561.0726.687.066,1,0,1.609-.494,1.609-1.361s-.61-1.271-1.514-1.271c-.2623-.0073-.5246.0149-.782.066ZM201.927,77.5241c-.19-.4965-.3317-1.0103-.423-1.534-.189-.886-.542-1.221-1.3-1.249h-.777v2.783h-.828v-6.334c.5257-.0889,1.0579-.1338,1.591-.134.6628-.0644,1.3256.1226,1.857.524.3324.3213.5139.7679.5,1.23.0067.7492-.4824,1.4127-1.2,1.628v.03c.5198.2368.875.7317.933,1.3.1135.6011.2808,1.1908.5,1.762l-.853-.006ZM199.427,71.7711v2.342h.849c.885,0,1.447-.485,1.447-1.219,0-.829-.6-1.191-1.475-1.191-.2754-.0084-.5508.0144-.821.068ZM195.57,77.5241v-6.42h.839v6.42h-.839ZM193.008,77.5241l-.681-2.019h-2.276l-.667,2.019h-.857l2.191-6.42h.99l2.191,6.42h-.891ZM190.847,73.0001l-.63,1.858h1.943l-.633-1.849c-.143-.419-.239-.8-.334-1.172h-.02c-.098.371-.194.772-.326,1.163ZM180.997,77.5241v-6.42h.837v5.725h2.744v.7l-3.581-.005ZM178.435,77.5241l-.687-2.019h-2.276l-.667,2.019h-.858l2.193-6.42h.99l2.191,6.42h-.886ZM176.271,73.0001l-.628,1.858h1.943l-.637-1.849c-.145-.419-.239-.8-.334-1.172h-.02c-.095.371-.19.772-.324,1.163ZM171.404,77.5241l-2.039-3.257c-.4428-.6877-.8403-1.4036-1.19-2.143l-.029.009c.046.81.057,1.581.057,2.647v2.744h-.776v-6.42h.913l2.05,3.248c.4242.6697.804,1.3666,1.137,2.086l.03-.009c-.077-.856-.1-1.638-.1-2.639v-2.686h.781v6.42h-.834ZM157.087,77.5241v-6.42h.838v6.42h-.838ZM152.837,77.5241v-5.716h-1.952v-.7h4.753v.7h-1.961v5.716h-.84ZM149.781,77.5241l-.687-2.019h-2.276l-.667,2.019h-.858l2.193-6.42h.99l2.191,6.42h-.886ZM147.618,73.0001l-.628,1.858h1.943l-.637-1.849c-.145-.419-.239-.8-.334-1.172h-.02c-.094.371-.19.772-.324,1.163ZM142.751,77.5241l-2.039-3.257c-.4422-.6881-.8396-1.4039-1.19-2.143l-.029.009c.048.81.057,1.581.057,2.647v2.744h-.781v-6.42h.915l2.048,3.248c.4265.6693.8086,1.3658,1.144,2.085l.029-.009c-.077-.856-.1-1.638-.1-2.639v-2.685h.781v6.42h-.835ZM136.227,77.5241c-.1904-.4961-.3308-1.01-.419-1.534-.191-.886-.544-1.221-1.3-1.249h-.781v2.783h-.83v-6.334c.5257-.0889,1.0579-.1337,1.591-.134.6628-.0647,1.3257.1224,1.857.524.3324.3213.5139.7679.5,1.23.0067.7492-.4824,1.4127-1.2,1.628v.03c.5203.2366.8762.7314.935,1.3.1118.6009.2771,1.1906.494,1.762l-.847-.006ZM133.727,71.7711v2.342h.847c.887,0,1.449-.485,1.449-1.219,0-.829-.6-1.191-1.477-1.191-.2747-.0083-.5494.0145-.819.068ZM127.458,77.5241v-6.42h3.477v.695h-2.639v2.029h2.487v.687h-2.487v2.314h2.783v.7l-3.621-.005ZM123.21,77.5241v-5.716h-1.954v-.7h4.754v.7h-1.962v5.716h-.838ZM118.962,77.5241l-2.035-3.257c-.4428-.6877-.8403-1.4036-1.19-2.143l-.029.009c.046.81.057,1.581.057,2.647v2.744h-.781v-6.42h.913l2.05,3.248c.4259.6693.8073,1.3658,1.142,2.085l.029-.009c-.075-.856-.095-1.638-.095-2.639v-2.685h.781v6.42h-.842ZM111.951,77.5241v-6.42h.838v6.42h-.838ZM91.492,77.5241l-1.365-2.476c-.4144-.7336-.786-1.4905-1.113-2.267h-.039c.048.857.068,1.762.068,2.809v1.934h-1.338v-6.42h1.7l1.333,2.353c.3934.7117.7437,1.4463,1.049,2.2h.018c-.0834-.8925-.1215-1.7886-.114-2.685v-1.868h1.334v6.42h-1.533ZM84.92,77.5241l-.493-1.648h-1.837l-.457,1.648h-1.5l1.957-6.42h1.905l2,6.42h-1.575ZM83.177,73.4241l-.378,1.366h1.42l-.4-1.362c-.114-.383-.228-.859-.325-1.238h-.02c-.093.38-.188.868-.293,1.239l-.004-.005ZM75.814,77.5241v-6.42h1.447v5.2h2.555v1.22h-4.002ZM73.156,77.5241c-.1877-.4841-.3313-.9841-.429-1.494-.182-.811-.458-1.021-1.058-1.029h-.432v2.523h-1.44v-6.334c.6389-.0941,1.2842-.1389,1.93-.134.7296-.0678,1.4609.11,2.078.505.4047.3297.6276.8328.6,1.354-.0113.7096-.4622,1.3375-1.131,1.575v.029c.4615.2343.7811.6772.858,1.189.2.733.391,1.574.514,1.819l-1.49-.003ZM71.237,72.1901v1.763h.571c.724,0,1.152-.363,1.152-.925,0-.582-.4-.886-1.067-.886-.2198-.0094-.4399.0067-.656.048ZM54.213,77.5241v-6.42h3.954v1.186h-2.507v1.338h2.367v1.183h-2.367v1.524h2.64v1.189h-4.087ZM50.679,77.5241l-1.372-2.476c-.4151-.7335-.7874-1.4905-1.115-2.267h-.037c.048.857.066,1.762.066,2.809v1.934h-1.333v-6.42h1.695l1.334,2.353c.3928.7117.7424,1.4464,1.047,2.2h.02c-.0834-.8925-.1215-1.7886-.114-2.685v-1.868h1.333v6.42h-1.524ZM44.05,77.5241c-.1914-.4836-.3383-.9837-.439-1.494-.18-.811-.457-1.021-1.058-1.029h-.426v2.523h-1.44v-6.334c.6403-.0944,1.2868-.1392,1.934-.134.7293-.0682,1.4604.1095,2.077.505.4052.3293.6283.8326.6,1.354-.0117.7104-.464,1.3385-1.134,1.575v.029c.4615.2338.7807.6772.856,1.189.2.733.391,1.574.516,1.819l-1.486-.003ZM42.127,72.1901v1.763h.571c.724,0,1.154-.363,1.154-.925,0-.582-.4-.886-1.067-.886-.2204-.0093-.4412.0068-.658.048ZM14.727,77.5241v-6.42h1.449v5.2h2.551v1.22h-4ZM9.088,77.5241v-6.42h3.953v1.186h-2.5v1.338h2.362v1.183h-2.364v1.524h2.638v1.189h-4.089ZM6.003,77.5241l-.103-2.456c-.029-.772-.057-1.7-.057-2.64h-.016c-.209.82-.476,1.734-.724,2.487l-.785,2.506h-1.133l-.687-2.478c-.209-.762-.419-1.677-.58-2.515h-.02c-.028.862-.071,1.862-.105,2.662l-.123,2.434H.327l.409-6.42h1.935l.628,2.144c.209.742.4,1.543.542,2.294h.039c.171-.742.391-1.589.61-2.3l.677-2.138h1.905l.343,6.42h-1.412Z"/>
        <path id="Path_40718" data-name="Path 40718" class="cls-1" d="M198.133,50.6381c-12.3516-1.5227-24.8387-1.5989-37.208-.227-8.375.927-34.436,5.41-37.645,4.749-7.366-1.517-6.528-6.578-2.382-14.282,2.538-4.717,6.714-14.018-1.63-19.581-9.88-6.587-26.752,3.277-40.726,14.164-6.953,5.417-16.046,11.371-16.8,11.209-1.08-.233,4.182-7.091,6.507-10.667,4.7-7.233,6.546-12.357,4.6-16.141-3.4-6.634-12.683-9.437-38.009,8.94-.173.669-.361,1.43-.542,2.246-.2555,1.1693-.4336,2.3542-.533,3.547,22.02-16.44,28.818-13.93,30.039-11.591,2.34,4.487-20.908,27.736-5.634,31.2,6.805,1.542,17.29-7.144,28.534-16.159,9.706-7.781,20.955-13.558,26.117-10.382,2.015,1.24,3.733,4.161-.379,11.7-1.95,3.575-6.829,12.265,1.807,18.816,7.424,5.633,21.158,2.144,30.745.031,17.8584-3.9496,36.17-5.4584,54.434-4.485l-1.295-3.087Z"/>
        <path id="Path_40719" data-name="Path 40719" class="cls-3" d="M45.472,21.7401c-.7092.8005-1.2621,1.7268-1.63,2.731-.4762,1.2988-.8768,2.624-1.2,3.969l2.209-1.348c.1182-.7837.3763-1.5397.762-2.232.8595-1.7118,1.8547-3.352,2.976-4.905l-3.117,1.785Z"/>
        <path id="Path_40720" data-name="Path 40720" class="cls-1" d="M107.664,19.5892c-.735.177-1.882.466-3.208.844-1.589.453-2.837.917-3.52,1.188.6845,3.6456.7099,7.3844.075,11.039-2.719,16.769-18.107,28.857-35.276,28.815s-26.683-12.21-23.965-28.979S59.878,3.6352,77.045,3.6802c12.681.034,21.18,6.684,23.664,16.913.751-.293,1.948-.727,3.461-1.158,1.283-.367,2.4-.65,3.132-.827C103.071,7.6412,91.48.0391,76.629.0002c-20.608-.054-39.676,14.468-42.589,32.436s11.433,32.581,32.041,32.631,39.676-14.466,42.589-32.435c.7434-4.3642.3978-8.8444-1.006-13.043Z"/>
        <path id="Path_40721" data-name="Path 40721" class="cls-3" d="M101.423,28.7551c1.2781-.5543,2.5921-1.0221,3.933-1.4,1.188-.35,2.4161-.5456,3.654-.582,0,0,.022.8.022,1.666s-.049,1.314-.049,1.314c-1.2962-.0992-2.5999-.0065-3.869.275-1.3334.2986-2.6401.706-3.907,1.218,0,0,.084-.623.135-1.233s.081-1.258.081-1.258Z"/>
        <path id="Path_40722" data-name="Path 40722" class="cls-1" d="M33.544,29.7572c-1.919,1.417-3.922,2.943-6.025,4.6-9.8291,7.9614-19.0294,16.6693-27.519,26.046l5.278.018c7.3541-8.1164,15.3788-15.5988,23.989-22.368,1.174-.928,2.307-1.8,3.406-2.635.0969-1.5395.3037-3.07.619-4.58.084-.371.168-.731.252-1.081Z"/>
        <path id="Path_40723" data-name="Path 40723" class="cls-1" d="M9.98,58.3292h-.709v-.256h1.726v.256h-.712v2.075h-.3l-.005-2.075Z"/>
        <path id="Path_40724" data-name="Path 40724" class="cls-1" d="M13.222,59.3812c-.017-.325-.038-.72-.038-1.007h-.007c-.083.27-.176.564-.294.885l-.411,1.131h-.228l-.38-1.11c-.111-.332-.2-.63-.266-.906h-.007c-.007.291-.024.678-.045,1.031l-.062,1h-.287l.163-2.331h.384l.4,1.128c.1.287.173.543.235.785h.007c.062-.235.145-.491.249-.785l.415-1.128h.384l.145,2.331h-.3l-.057-1.024Z"/>
        <path id="Path_40725" data-name="Path 40725" class="cls-1" d="M228.281,74.3152c.0005-.6837.5553-1.2375,1.239-1.237s1.2375.5553,1.237,1.239c-.0006.6837-.5553,1.2375-1.2391,1.237-.0026,0-.0053,0-.0079,0-.6771.0017-1.2274-.5458-1.2291-1.2229,0-.0054,0-.0107,0-.0161Z"/>
      </g>
    </g>
  </g>
</svg>